<?xml version="1.0" standalone="no"?>
<!DOCTYPE svg PUBLIC "-//W3C//DTD SVG 1.1//EN" "http://www.w3.org/Graphics/SVG/1.1/DTD/svg11.dtd" >
<svg xmlns="http://www.w3.org/2000/svg">
<metadata>Generated by IcoMoon</metadata>
<defs>
<font id="icomoon" horiz-adv-x="1024">
<font-face units-per-em="1024" ascent="960" descent="-64" />
<missing-glyph horiz-adv-x="1024" />
<glyph unicode="&#x20;" horiz-adv-x="512" d="" />
<glyph unicode="&#xe900;" glyph-name="Vector-Stroke" d="M297.604 826.549h-108.319c-104.407 0-189.285-84.096-189.285-188.768v-178.424l15.354-26.779c125.265-73.325 286.774-118.564 462.779-123.305v-100.566c0-17.138 13.895-31.030 31.030-31.030 17.138 0 31.030 13.892 31.030 31.030v100.582c175.836 4.816 337.61 50.030 462.761 123.29l15.354 26.779v177.906c0 104.408-84.092 189.286-188.767 189.286h-108.814c-6.045 74.683-68.611 133.451-144.849 133.451h-133.43c-76.232 0-138.799-58.768-144.844-133.451zM360.029 826.549c5.769 40.341 40.495 71.39 82.42 71.39h133.43c41.928 0 76.657-31.050 82.426-71.39h-298.276zM510.312 370.921c-0.382 0.016-0.763 0.022-1.148 0.022-0.388 0-0.776-0.006-1.161-0.022-170.508 0.14-326.137 40.408-445.943 106.49v160.371c0 70.133 56.827 126.707 127.224 126.707h640.258c70.135 0 126.706-56.827 126.706-127.225v-159.85c-119.709-66.011-275.611-106.269-445.936-106.493zM29.966 301.385c-17.089-1.288-29.899-16.185-28.612-33.274l9.775-129.769c7.844-103.626 94.189-183.737 198.092-183.737h599.865c103.905 0 190.253 80.123 198.094 183.749l9.775 129.756c1.288 17.088-11.522 31.986-28.61 33.274-17.091 1.288-31.986-11.522-33.274-28.613l-9.775-129.756c0-0.003 0 0.003 0 0-5.402-71.28-64.794-126.349-136.211-126.349h-599.865c-71.415 0-130.807 55.082-136.208 126.362l-9.774 129.744c-1.287 17.091-16.184 29.901-33.273 28.613z" />
<glyph unicode="&#xe901;" glyph-name="left_active" d="M283.588 400.384h-0.030c-10.872 13.131-16.866 29.666-16.866 46.712-1.084 16.294 3.313 32.467 12.499 45.99h-0.030l0.241 0.301 332.288 412.25c6.114 8.011 13.824 14.667 22.648 19.546 8.824 4.909 18.552 7.921 28.612 8.885v0c10.029 0.964 20.179-0.151 29.786-3.283 9.547-3.132 18.372-8.192 25.871-14.848 7.499-6.024 13.734-13.493 18.342-21.926 4.638-8.463 7.56-17.769 8.584-27.347 1.024-9.608 0.12-19.305-2.62-28.582-2.741-9.246-7.288-17.86-13.372-25.359 0 0 0 0 0 0l-294.912-365.417 305.875-365.508c12.439-14.968 18.432-34.244 16.655-53.609-1.807-19.366-11.204-37.225-26.172-49.664-14.999-12.439-34.304-18.402-53.67-16.625-19.396 1.807-37.286 11.204-49.724 26.142l-344.004 412.341z" />
<glyph unicode="&#xe902;" glyph-name="right-active" d="M740.421 400.369l0.009 0.009c10.897 13.137 16.863 29.66 16.866 46.715 1.087 16.288-3.304 32.47-12.478 45.981l0.012 0.009-0.232 0.289-332.29 412.276c-6.12 7.995-13.825 14.644-22.632 19.533-8.825 4.898-18.567 7.922-28.616 8.885v0c-10.049 0.962-20.189-0.158-29.784-3.292-9.559-3.122-18.373-8.174-25.894-14.844-7.492-6.030-13.723-13.476-18.337-21.911-4.632-8.469-7.544-17.769-8.566-27.366s-0.135-19.301 2.61-28.555c2.744-9.252 7.292-17.87 13.381-25.36 0.001-0.002 0.002-0.003 0.004-0.005l294.895-365.438-305.872-365.502c-12.445-14.953-18.434-34.235-16.646-53.603 1.788-19.366 11.205-37.228 26.178-49.658s34.275-18.408 53.66-16.622c19.385 1.786 37.268 11.189 49.713 26.142l344.019 412.317z" />
<glyph unicode="&#xe903;" glyph-name="left-inactive" d="M283.578 495.631l-0.008-0.009c-10.898-13.137-16.862-29.66-16.866-46.715-1.088-16.288 3.303-32.47 12.477-45.981l-0.013-0.009 332.524-412.563c6.12-7.996 13.824-14.646 22.63-19.534 8.824-4.897 18.568-7.921 28.618-8.885v0c10.047-0.964 20.188 0.16 29.783 3.292 9.559 3.12 18.372 8.174 25.892 14.842 7.493 6.033 13.725 13.478 18.339 21.914 4.632 8.469 7.544 17.769 8.565 27.365 1.024 9.598 0.136 19.302-2.608 28.555s-7.291 17.869-13.381 25.359c0 0.003-0.003 0.003-0.003 0.006l-294.896 365.438 305.871 365.501c12.445 14.955 18.435 34.237 16.646 53.603s-11.204 37.229-26.178 49.658c-14.971 12.429-34.274 18.409-53.661 16.624-19.384-1.785-37.268-11.188-49.712-26.143l-344.020-412.316z" />
<glyph unicode="&#xe904;" glyph-name="right-inactive" d="M740.412 495.616h0.030c10.872-13.131 16.836-29.666 16.866-46.712 1.084-16.294-3.313-32.467-12.499-45.99h0.030l-0.241-0.301-332.288-412.25c-6.114-8.011-13.824-14.667-22.648-19.546-8.824-4.909-18.552-7.921-28.612-8.885v0c-10.029-0.964-20.179 0.151-29.786 3.283-9.547 3.132-18.372 8.192-25.871 14.848-7.499 6.024-13.734 13.493-18.342 21.926-4.638 8.463-7.56 17.769-8.584 27.347-1.024 9.608-0.12 19.305 2.62 28.552 2.741 9.276 7.288 17.89 13.372 25.389 0 0 0 0 0 0l294.912 365.417-305.875 365.508c-12.439 14.968-18.432 34.244-16.655 53.609 1.807 19.366 11.204 37.225 26.202 49.664 14.968 12.408 34.244 18.402 53.64 16.625 19.396-1.807 37.286-11.204 49.724-26.142l344.004-412.341z" />
<glyph unicode="&#xe905;" glyph-name="d" d="M1008.891 440.489c-0.097 0.059-0.179 0.123-0.284 0.182l-0.205 0.115c-0.059 0.031-0.118 0.064-0.174 0.097l-59.087 32.945v235.118c0 57.172-46.513 103.685-103.685 103.685h-140.739l-20.385 122.301c-2.412 14.466-14.925 25.068-29.591 25.068h-360.335c-14.666 0-27.182-10.602-29.591-25.068l-20.385-122.301h-140.739c-57.171 0-103.685-46.514-103.685-103.685v-494.394c0-57.172 46.514-103.685 103.685-103.685h340.885v-15.56c0-11.379 6.441-21.783 16.627-26.854l259.709-129.3c0.028-0.010 0.054-0.013 0.079-0.026 4.122-2.033 8.681-3.126 13.315-3.126 4.49 0 9.052 1.011 13.348 3.149l259.715 129.3c10.186 5.071 16.63 15.473 16.63 26.857v319.163c0 11.144-6.088 20.846-15.107 26.020zM734.285 304.003l-198.113 110.467 198.113 110.467 198.113-110.467-198.113-110.467zM460.344 440.883c-0.061-0.033-0.118-0.067-0.177-0.097l-0.205-0.115c-0.046-0.026-0.077-0.059-0.123-0.084-9.108-5.151-15.265-14.907-15.265-26.117v-93.059c-64.778 13.834-113.513 71.493-113.513 140.337 0 79.132 64.376 143.511 143.511 143.511 56.622 0 107.418-33.467 130.476-83.689l-144.704-80.686zM319.818 900h309.509l14.561-87.372h-338.634l14.564 87.372zM103.688 170.865c-24.088 0-43.686 19.597-43.686 43.686v494.394c0 24.088 19.598 43.686 43.686 43.686h741.767c24.087 0 43.686-19.598 43.686-43.686v-201.661l-140.247 78.203c-9.083 5.064-20.137 5.064-29.217 0l-62.141-34.652c-33.59 68.838-104.302 114.422-182.963 114.422-112.215 0-203.512-91.292-203.512-203.51 0-102.029 75.471-186.749 173.514-201.298v-89.585h-340.887zM504.573 113.884v249.51l199.711-111.357v-237.583l-199.711 99.43zM764.285 14.454v237.583l199.711 111.357v-249.51l-199.711-99.43z" />
<glyph unicode="&#xe906;" glyph-name="home" d="M577.351 282.347c55.537 0 100.739-44.882 100.739-100.048v-141.885c0-11.853 9.504-21.355 21.681-21.631h87.915c69.283 0 125.603 55.628 125.603 123.987v402.404c-0.324 23.524-11.532 45.665-30.767 60.377l-304.109 242.532c-40.822 32.334-97.928 32.334-138.888-0.092l-302.033-242.346c-19.973-15.177-31.181-37.318-31.412-61.257v-401.618c0-68.359 56.32-123.987 125.601-123.987h88.747c12.501 0 22.647 9.916 22.647 22.093 0 2.676 0.324 5.35 0.877 7.888v133.535c0 54.845 44.926 99.679 100.048 100.048h133.35zM787.686-50.406h-88.745c-50.832 1.198-90.040 41.098-90.040 90.82v141.885c0 17.021-14.159 30.858-31.55 30.858h-133.12c-17.021-0.091-31.088-13.976-31.088-30.858v-141.423c0-3.459-0.462-6.781-1.431-9.916-4.982-45.665-44.004-81.366-91.283-81.366h-88.747c-107.428 0-194.791 86.669-194.791 193.176v401.942c0.461 45.85 21.587 87.823 58.073 115.455l301.434 241.931c66.375 52.584 158.858 52.584 225.095 0.092l303.602-242.161c35.657-27.169 56.782-69.051 57.383-114.348v-402.911c0-106.507-87.364-193.176-194.792-193.176z" />
<glyph unicode="&#xe907;" glyph-name="iot" d="M812.001 448c0 165.42-134.582 300-300.001 300s-300-134.58-300-300c0-165.42 134.58-300.001 300-300.001s300.001 134.582 300.001 300.001zM454.561 269.263c-17.876 40.215-28.884 92.209-31.772 148.736h178.417c-2.888-56.525-13.893-108.518-31.77-148.736-16.794-37.788-38.804-61.263-57.436-61.263-18.634 0-40.645 23.475-57.439 61.263zM512 688c18.632 0 40.643-23.475 57.439-61.266 17.876-40.215 28.879-92.211 31.77-148.733h-178.417c2.888 56.525 13.896 108.518 31.77 148.733 16.794 37.791 38.804 61.266 57.439 61.266zM618.693 233.065c1.907 3.825 3.768 7.764 5.576 11.83 21.112 47.508 33.976 108.106 37.018 173.105h88.845c-10.168-81.162-61.025-149.842-131.438-184.934zM750.131 478.001h-88.845c-3.041 64.998-15.905 125.596-37.018 173.105-1.807 4.065-3.668 8.005-5.576 11.83 70.413-35.092 121.27-103.772 131.438-184.934zM405.307 662.935c-1.91-3.825-3.768-7.764-5.576-11.83-21.112-47.508-33.981-108.106-37.020-173.105h-88.842c10.168 81.162 61.025 149.839 131.438 184.934zM273.871 417.999h88.842c3.041-64.998 15.905-125.596 37.018-173.105 1.81-4.065 3.668-8.005 5.576-11.83-70.413 35.095-121.27 103.772-131.436 184.934zM100 760c16.666 0 32.38 4.122 46.212 11.362l68.932-68.931c5.858-5.86 13.534-8.786 21.212-8.786s15.356 2.929 21.211 8.786c68.081 68.077 158.438 105.569 254.433 105.569 16.568 0 30.001 13.432 30.001 30s-13.432 30-30.001 30c-101.983 0-198.505-36.254-274.904-102.67l-48.458 48.458c7.242 13.834 11.362 29.546 11.362 46.212 0 55.14-44.86 100-100 100s-100-44.86-100-100c0-55.14 44.86-100 100-100zM100 900c22.056 0 40-17.944 40-40s-17.944-40-40-40c-22.056 0-40 17.944-40 40s17.944 40 40 40zM924.001 136c-16.668 0-32.381-4.119-46.213-11.361l-68.933 68.931c-11.712 11.715-30.71 11.715-42.424 0-68.078-68.078-158.438-105.569-254.431-105.569-16.568 0-30.001-13.432-30.001-30.001s13.432-29.998 30.001-29.998c101.983 0 198.505 36.252 274.903 102.669l48.458-48.458c-7.242-13.832-11.361-29.545-11.361-46.211 0-55.14 44.859-100.001 100.001-100.001 55.14 0 99.999 44.861 99.999 100.001s-44.859 99.999-99.999 99.999zM924.001-3.999c-22.057 0-40.003 17.943-40.003 40 0 22.054 17.946 40 40.003 40 22.054 0 39.997-17.946 39.997-40 0-22.057-17.943-40-39.997-40zM152 448c0 16.568-13.432 30.001-30 30.001s-30-13.432-30-30.001c0-101.983 36.254-198.505 102.67-274.903l-48.458-48.458c-13.832 7.242-29.546 11.361-46.212 11.361-55.14 0-100-44.859-100-100.001 0-55.14 44.86-99.999 100-99.999s100 44.859 100 99.999c0 16.668-4.12 32.381-11.362 46.213l68.931 68.933c11.717 11.712 11.717 30.71 0 42.424-68.077 68.078-105.569 158.438-105.569 254.431zM100-3.999c-22.056 0-40 17.943-40 39.997 0 22.057 17.944 40.003 40 40.003s40-17.946 40-40.003c0-22.054-17.944-39.997-40-39.997zM872 448c0-16.568 13.432-30.001 30.001-30.001 16.566 0 29.998 13.432 29.998 30.001 0 101.983-36.252 198.505-102.669 274.904l48.458 48.458c13.832-7.24 29.545-11.362 46.211-11.362 55.14 0 100.001 44.86 100.001 100s-44.861 100-100.001 100c-55.14 0-99.999-44.86-99.999-100 0-16.666 4.119-32.378 11.361-46.212l-68.933-68.932c-11.715-11.714-11.715-30.71 0-42.425 68.078-68.078 105.572-158.438 105.572-254.431zM923.999 900c22.057 0 40-17.944 40-40s-17.943-40-40-40c-22.054 0-40 17.944-40 40s17.946 40 40 40z" />
<glyph unicode="&#xe908;" glyph-name="LinkedIn" d="M1024 332.187v-396.187h-219.476v369.653c0 92.859-31.745 156.233-111.188 156.233-60.645 0-96.735-42.709-112.612-84.023-5.79-14.769-7.281-35.326-7.281-56.001v-385.862h-219.55c0 0 2.957 626.070 0 690.935h219.529v-97.937c-0.445-0.732-1.024-1.522-1.443-2.232h1.443v2.232c29.166 47.012 81.254 114.17 197.844 114.17 144.447 0.002 252.733-98.753 252.733-310.981zM124.235 960c-75.108 0-124.235-51.556-124.235-119.354 0-66.32 47.705-119.44 121.32-119.44h1.466c76.562 0 124.177 53.111 124.177 119.44-1.443 67.798-47.615 119.354-122.729 119.354zM13.039-64h219.467v690.935h-219.467v-690.935z" />
<glyph unicode="&#xe909;" glyph-name="megaphone" d="M893.952 556.173l-339.32 339.321c-35.080 35.080-92.163 35.082-127.245 0-31.537-31.534-34.25-79.628-10.964-113.97l-0.471-2.362c-24.463-122.33-84.022-233.619-172.24-321.834l-155.638-155.638c-35.164-35.164-35.17-92.078 0-127.242l84.828-84.828c35.162-35.164 92.079-35.167 127.243 0l21.21 21.207 148.452-148.452c35.164-35.167 92.076-35.167 127.242 0 35.080 35.080 35.080 92.163 0 127.242l-63.624 63.621 21.21 21.21c35.162 35.162 35.167 92.073 0 127.24l-14.413 14.415c70.897 49.638 151.416 84.196 237.402 101.394l2.391 0.479c35.108-23.703 83.087-19.894 113.938 10.957h0.003c35.077 35.077 35.077 92.157-0.003 127.24zM257.731 132.035c-11.719-11.72-30.695-11.72-42.415 0l-84.828 84.828c-11.722 11.725-11.722 30.692 0 42.414l148.45 148.452 127.245-127.242c-14.525-14.525-133.568-133.568-148.452-148.452zM554.632 47.206c11.692-11.692 11.692-30.72 0-42.414-11.692-11.692-30.723-11.692-42.414 0l-148.452 148.452 42.417 42.414 148.449-148.452zM448.596 238.072c9.014 9.016 22.51 22.825 43.812 41.016l19.809-19.812c11.722-11.722 11.722-30.689 0-42.414l-21.21-21.207-42.412 42.417zM449.869 321.623l-129.795 129.797c69.558 80.317 119.37 175.127 146.020 278.126l261.903-261.904c-103.002-26.647-197.809-76.46-278.129-146.020zM851.533 471.35c-11.722-11.72-30.692-11.72-42.414 0l-339.318 339.317c-11.722 11.724-11.722 30.692 0 42.414s30.694 11.722 42.417 0l339.315-339.316c11.692-11.692 11.692-30.72 0-42.414zM300.145 301.693c-11.712 11.712-30.702 11.712-42.414 0l-42.415-42.414c-11.712-11.712-11.712-30.702 0-42.414 11.71-11.712 30.704-11.712 42.415 0l42.414 42.414c11.712 11.712 11.712 30.702 0 42.414zM692.38 960c-16.566 0-29.993-13.428-29.993-29.992v-59.984c0-16.564 13.427-29.992 29.993-29.992 16.563 0 29.99 13.428 29.99 29.992v59.984c0 16.564-13.427 29.992-29.99 29.992zM932.314 720.068h-59.986c-16.563 0-29.99-13.428-29.99-29.992s13.427-29.99 29.99-29.99h59.986c16.563 0 29.99 13.427 29.99 29.99s-13.43 29.992-29.99 29.992zM893.537 891.234c-11.709 11.712-30.702 11.712-42.414 0l-59.983-59.984c-11.712-11.712-11.712-30.702 0-42.414 11.709-11.712 30.702-11.714 42.414 0l59.983 59.984c11.712 11.712 11.712 30.7 0 42.414z" />
<glyph unicode="&#xe90a;" glyph-name="mobile" d="M750.938 963.84h-477.875c-49.222-0.058-89.112-39.948-89.17-89.169v-853.341c0.058-49.224 39.948-89.111 89.17-89.17h477.875c49.221 0.059 89.111 39.946 89.167 89.17v853.341c-0.056 49.221-39.946 89.111-89.167 89.169zM798.292 21.332c0-26.156-21.202-47.36-47.36-47.36h-477.868c-26.155 0-47.359 21.204-47.359 47.36v13.228h572.586v-13.228zM798.292 76.372h-572.586v743.254h572.586v-743.254zM798.292 861.44h-572.586v13.227c0 26.157 21.203 47.36 47.359 47.36h477.868c26.158 0 47.36-21.203 47.36-47.36v-13.227zM477.868 910.080h-34.132c-10.132 0-18.348-8.215-18.348-18.347s8.215-18.346 18.348-18.346h34.132c10.132 0 18.348 8.215 18.348 18.346s-8.215 18.347-18.348 18.347zM597.332 910.080h-68.265c-10.132 0-18.348-8.215-18.348-18.347s8.215-18.346 18.348-18.346h68.265c10.132 0 18.348 8.215 18.348 18.346s-8.215 18.347-18.348 18.347zM563.2 21.332h-102.4c-9.426 0-17.068-7.642-17.068-17.065 0-9.426 7.642-17.068 17.068-17.068h102.4c9.423 0 17.065 7.642 17.065 17.068 0 9.423-7.642 17.065-17.065 17.065z" />
<glyph unicode="&#xe90b;" glyph-name="password" d="M294.35 874.667c-126.946 0-209.016-86.99-209.016-221.665v-410.004c0-134.674 82.071-221.666 209.016-221.666h435.099c127.096 0 209.218 86.992 209.218 221.666v410.004c0 134.675-82.122 221.665-209.119 221.665h-435.199zM729.449-53.962h-435.099c-170.064 0-284.31 119.368-284.31 296.96v410.004c0 177.593 114.246 296.959 284.31 296.959h435.199c170.117 0 284.413-119.366 284.413-296.959v-410.004c0-177.592-114.296-296.96-284.512-296.96zM353.322 503.296c-30.621 0-55.418-24.796-55.418-55.317 0-30.518 24.797-55.314 55.315-55.314 30.47 0 55.317 24.796 55.317 55.314 0 30.47-24.796 55.266-55.215 55.317zM353.22 317.371c-72.031 0-130.609 58.627-130.609 130.608 0 72.032 58.579 130.611 130.609 130.611 72.132-0.051 130.611-58.63 130.611-130.611s-58.579-130.608-130.611-130.608zM763.467 317.365c-20.781 0-37.647 16.866-37.647 37.647v55.365h-279.492c-20.781 0-37.647 16.818-37.647 37.647 0 20.781 16.866 37.647 37.647 37.647h317.139c20.781 0 37.647-16.866 37.647-37.647v-93.012c0-20.781-16.866-37.647-37.647-37.647zM621.502 317.365c-20.781 0-37.647 16.866-37.647 37.647v93.012c0 20.781 16.866 37.647 37.647 37.647s37.647-16.866 37.647-37.647v-93.012c0-20.781-16.866-37.647-37.647-37.647z" />
<glyph unicode="&#xe90c;" glyph-name="all_in_one_platform" d="M750.943 965.12h-477.878c-49.927-0.059-90.389-40.52-90.447-90.447v-853.345c0.059-49.928 40.52-90.388 90.447-90.447h477.878c49.928 0.059 90.388 40.52 90.447 90.447v853.345c-0.059 49.927-40.52 90.389-90.447 90.447zM797.018 21.332c0-25.449-20.631-46.080-46.080-46.080h-477.868c-25.449 0-46.079 20.631-46.079 46.080v11.948h570.027v-11.948zM797.018 77.652h-570.027v740.694h570.027v-740.694zM797.018 862.72h-570.027v11.947c0 25.449 20.63 46.080 46.079 46.080h477.868c25.449 0 46.080-20.631 46.080-46.080v-11.947zM477.862 910.080h-34.132c-10.132 0-18.348-8.215-18.348-18.347s8.215-18.346 18.348-18.346h34.132c10.132 0 18.348 8.215 18.348 18.346s-8.215 18.347-18.348 18.347zM597.332 910.080h-68.265c-10.132 0-18.348-8.215-18.348-18.347s8.215-18.346 18.348-18.346h68.265c10.132 0 18.348 8.215 18.348 18.346s-8.215 18.347-18.348 18.347zM563.205 21.332h-102.4c-9.426 0-17.068-7.642-17.068-17.068 0-9.423 7.642-17.065 17.068-17.065h102.4c9.423 0 17.065 7.642 17.065 17.065 0 9.426-7.642 17.068-17.065 17.068z" />
<glyph unicode="&#xe90d;" glyph-name="shield" d="M520.953 877.105c-41.349 0-302.227-91.867-332.313-116.98-8.875-8.923-9.216-24.43-7.314-128.244 0.878-50.030 2.097-118.003 2.097-212.114 0-253.61 279.016-366.203 337.481-386.926 58.418 20.822 337.581 134.047 337.581 386.926 0 94.208 1.217 162.231 2.145 212.261 1.852 103.717 1.513 119.223-7.899 128.585-29.5 24.625-290.427 116.492-331.776 116.492zM520.953-42.35c-3.561 0-7.118 0.489-10.582 1.559-16.334 4.927-400.091 124.978-400.091 460.557 0 93.477-1.219 161.11-2.097 210.748-2.243 124.003-2.731 149.846 29.306 181.834 38.278 38.375 328.168 137.899 383.464 137.899 55.246 0 345.138-99.523 383.511-137.899 31.99-31.988 31.501-57.832 29.257-181.688-0.878-49.638-2.098-117.271-2.098-210.894 0-335.579-383.754-455.63-400.089-460.557-3.464-1.071-7.022-1.559-10.582-1.559zM486.502 339.772c-9.705 0-19.017 3.853-25.893 10.729l-92.258 92.356c-14.238 14.286-14.238 37.496 0.049 51.735 14.239 14.286 37.448 14.286 51.737 0l66.364-66.463 164.229 164.232c14.289 14.286 37.402 14.286 51.689 0 14.286-14.289 14.286-37.449 0-51.738l-190.075-190.122c-6.826-6.875-16.138-10.729-25.843-10.729z" />
<glyph unicode="&#xe90e;" glyph-name="testimonial-logo" d="M411.382 720.179c25.607 10.739 36.345 41.303 24.781 66.085l-40.475 85.085c-11.568 23.948-39.653 34.695-64.435 23.948-70.215-29.738-130.518-68.564-178.43-115.649-58.651-55.338-98.302-118.945-119.779-189.161-21.478-71.049-33.043-167.69-33.043-290.775v-253.604c0-27.259 22.304-49.562 49.564-49.562h324.643c27.262 0 49.565 22.303 49.565 49.562v324.646c0 27.269-22.303 49.565-49.565 49.565h-155.299c1.652 83.439 21.478 150.344 57.825 200.741 29.738 40.461 74.346 73.503 134.65 99.12zM994.604 720.175c25.61 10.739 36.338 41.303 24.784 66.085l-40.479 84.251c-11.564 23.956-39.653 34.695-64.433 23.956-69.39-29.738-128.874-68.563-177.603-114.823-58.662-56.173-99.13-119.78-120.617-189.995-21.477-69.381-32.208-166.040-32.208-289.951v-253.6c0-27.259 22.306-49.565 49.565-49.565h324.646c27.259 0 49.562 22.306 49.562 49.565v324.642c0 27.269-22.303 49.565-49.562 49.565h-156.129c1.655 83.442 21.487 150.344 57.825 200.743 29.74 40.469 74.346 73.512 134.649 99.128z" />
<glyph unicode="&#xe910;" glyph-name="location" d="M494.457 593.574c-48.439 0-87.843-39.404-87.843-87.894 0-48.439 39.404-87.793 87.843-87.793s87.843 39.354 87.843 87.793c0 48.489-39.404 87.894-87.843 87.894zM494.457 342.594c-89.951 0-163.137 73.135-163.137 163.086 0 90.002 73.186 163.188 163.137 163.188s163.137-73.186 163.137-163.188c0-89.951-73.186-163.086-163.137-163.086zM494.406 844.551c-186.83 0-338.824-153.449-338.824-341.986 0-239.885 282.302-473.598 338.824-486.049 56.521 12.499 338.822 246.212 338.822 486.049 0 188.536-151.992 341.986-338.822 341.986zM494.406-58.976c-90.052 0-414.118 278.685-414.118 561.542 0 230.099 185.776 417.28 414.118 417.28 228.339 0 414.116-187.181 414.116-417.28 0-282.857-324.065-561.542-414.116-561.542z" />
<glyph unicode="&#xe911;" glyph-name="Heart" horiz-adv-x="1086" d="M104.663 488.184c72.507-225.59 358.97-407.996 435.096-453.145 76.387 45.615 364.916 230.037 435.098 452.937 46.080 144.086 3.308 326.595-166.633 381.363-82.336 26.428-178.375 10.343-244.674-40.96-13.861-10.654-33.1-10.861-47.064-0.31-70.231 52.803-161.978 68.267-245.605 41.27-169.684-54.717-212.299-237.227-166.219-381.155zM539.812-48.538c-6.414 0-12.775 1.552-18.569 4.707-16.185 8.844-397.497 219.021-490.433 508.329-0.052 0-0.052 0.050-0.052 0.050-58.337 182.148 6.62 411.049 216.333 478.643 98.47 31.858 205.782 17.842 292.565-36.926 84.092 53.165 195.801 67.853 292.305 36.926 209.92-67.698 275.084-296.545 216.796-478.643-89.935-285.994-474.038-499.327-490.328-508.276-5.793-3.205-12.207-4.81-18.618-4.81zM845.777 565.664c-20.015 0-36.979 15.36-38.633 35.632-3.413 42.512-31.859 78.404-72.353 91.488-20.427 6.62-31.598 28.496-25.032 48.821 6.672 20.376 28.343 31.444 48.823 25.031 70.488-22.807 119.879-85.23 125.93-159.032 1.707-21.358-14.172-40.079-35.53-41.785-1.086-0.106-2.119-0.155-3.205-0.155z" />
<glyph unicode="&#xe912;" glyph-name="passionate" d="M941.105 938.365h-858.212c-48.586-0.059-87.954-39.427-88.012-88.012v-606.062c0.059-48.586 39.426-87.964 88.013-88.013h278.282v-158.707h-60.59c-10.629 0-19.231-8.617-19.231-19.233s8.602-19.231 19.231-19.231h435.21c10.619 0 19.233 8.612 19.233 19.231s-8.614 19.233-19.233 19.233h-72.963v158.707h278.272c48.586 0.049 87.964 39.427 88.013 88.013v606.063c-0.059 48.585-39.427 87.954-88.013 88.012zM82.9 899.901h858.197c27.359-0.036 49.531-22.205 49.556-49.559v-524.019h-957.309v524.022c0.036 27.354 22.202 49.52 49.556 49.556zM624.358-2.429h-224.73v158.707h224.73v-158.707zM941.094 194.742h-858.191c-27.354 0.026-49.523 22.19-49.559 49.556v43.561h957.309v-43.558c-0.026-27.366-22.2-49.533-49.559-49.559zM548.344 555.384h0.008l-0.018 0.215c-0.079 0.942-0.261 1.871-0.548 2.772l-42.806 139.5c0 0.003 0 0.005-0.003 0.010-1.265 4.209-4.454 7.12-8.243 8.936-3.781 1.812-8.338 2.636-12.838 2.636-4.393 0-8.893-0.827-12.644-2.639-3.761-1.816-6.948-4.727-8.215-8.933-0.003-0.003-0.003-0.005-0.003-0.008l-42.839-139.551c-0.253-0.87-0.43-1.761-0.527-2.66h-0.015v-0.284c0.005-4.895 3.574-8.563 7.452-10.847 3.968-2.335 8.963-3.681 13.307-3.681 2.67 0 5.304 0.42 7.508 1.61 2.291 1.239 3.973 3.241 4.718 6.031l7.895 27.63h46.938l7.895-27.63c0.745-2.79 2.427-4.792 4.718-6.031 2.204-1.19 4.838-1.61 7.508-1.61 4.367 0 9.364 1.413 13.317 3.771 3.85 2.296 7.434 5.962 7.434 10.762zM467.981 603.863l15.908 56.156 15.916-56.156h-31.823zM575.491 540.851c3.873 0 7.933 0.84 11.123 2.629 3.218 1.807 5.852 4.803 5.852 9.027v144.169c0 4.334-2.634 7.291-5.903 9.028-3.205 1.701-7.26 2.408-11.072 2.408-3.914 0-7.98-0.703-11.164-2.413-3.269-1.755-5.811-4.722-5.811-9.023v-144.169c0-4.193 2.542-7.196 5.757-9.021 3.174-1.8 7.245-2.634 11.218-2.634zM133.507 554.107c27.149-0.010 50.798 18.522 57.275 44.89h107.632c1.183-18.081 4.685-35.932 10.409-53.123h-7.683c-33.029-0.036-59.791-26.808-59.828-59.837-0.018-17.446-14.167-31.588-31.614-31.606h-8.811c-7.139 28.987-34.802 48.087-64.432 44.495-29.639-3.602-51.928-28.756-51.928-58.606 0-29.86 22.289-55.014 51.928-58.609 29.63-3.592 57.293 15.501 64.432 44.495h8.811c33.029 0.038 59.8 26.801 59.838 59.83 0.018 17.457 14.157 31.596 31.603 31.613h19.387c32.809-65.728 97.075-110.001 170.171-117.24 7.155-0.709 14.277-1.057 21.368-1.057 80.868 0.202 154.719 45.965 190.889 118.298h19.873c17.446-0.028 31.585-14.167 31.603-31.613 0.038-33.029 26.801-59.802 59.837-59.837h8.812c7.14-28.987 34.793-48.087 64.433-44.488 29.637 3.594 51.927 28.749 51.927 58.598 0 29.86-22.29 55.014-51.927 58.606-29.64 3.594-57.293-15.498-64.433-44.493h-8.812c-17.454 0.026-31.596 14.167-31.613 31.613-0.036 33.029-26.801 59.802-59.827 59.837h-8.269c4.961 15.012 8.248 30.52 9.81 46.259 0.23 2.289 0.397 4.575 0.553 6.863h108.247c7.137-28.997 34.793-48.087 64.43-44.495 29.64 3.592 51.927 28.749 51.927 58.606 0 29.852-22.287 55.007-51.927 58.609-29.637 3.592-57.293-15.508-64.43-44.495h-108.239c-1.175 18.071-4.675 35.932-10.399 53.112h8.297c33.027 0.046 59.791 26.809 59.827 59.838 0.018 17.456 14.159 31.596 31.613 31.614h8.812c2.555-10.455 7.939-20.010 15.555-27.608 18.962-18.991 48.346-22.794 71.524-9.27 23.181 13.524 34.317 40.985 27.113 66.83-7.204 25.854-30.935 43.594-57.761 43.19-26.836-0.413-50.017-18.862-56.43-44.918h-8.819c-33.029-0.037-59.791-26.809-59.83-59.838-0.018-17.447-14.167-31.586-31.613-31.614h-19.991c-36.155 72.48-110.185 118.279-191.183 118.279-80.996 0-155.028-45.799-191.191-118.279h-19.313c-17.454 0.028-31.596 14.167-31.613 31.614-0.036 33.029-26.799 59.801-59.837 59.838h-8.811c-6.431 26.001-29.575 44.403-56.356 44.798s-50.467-17.318-57.651-43.126c-7.194-25.798 3.923-53.204 27.048-66.71 23.134-13.515 52.46-9.73 71.405 9.206 7.617 7.598 13 17.153 15.555 27.608h8.811c17.456-0.018 31.596-14.167 31.614-31.614 0.037-33.029 26.8-59.792 59.829-59.838h7.652c-4.969-15.004-8.259-30.52-9.802-46.259-0.238-2.289-0.404-4.575-0.561-6.853h-107.64c-7.359 29.839-36.401 49.034-66.738 44.099-30.346-4.923-51.817-32.33-49.337-62.971 2.471-30.641 28.058-54.241 58.8-54.241zM165.36 418.555c-12.017-12.009-31.485-11.999-43.503 0.008-12.008 12.019-12.008 31.485 0 43.505 12.017 12.006 31.485 12.017 43.503 0.008 11.999-12.027 11.999-31.493 0-43.52zM858.591 462.075c12.017 12.027 31.514 12.027 43.53 0.010 12.027-12.027 12.027-31.514 0-43.54-12.017-12.017-31.514-12.017-43.53 0.010-12.009 12.027-12.009 31.503 0 43.53v-0.010zM868.68 634.872c12.024 12.019 31.511 12.019 43.53 0 12.024-12.024 12.024-31.511 0-43.53-12.019-12.024-31.506-12.024-43.53 0-5.827 5.742-9.106 13.588-9.106 21.765 0 8.187 3.279 16.023 9.106 21.765zM858.591 807.662c12.017 12.017 31.503 12.017 43.53 0 12.017-12.017 12.017-31.513 0-43.53-12.027-12.017-31.514-12.017-43.53 0-12.009 12.026-12.009 31.504 0 43.539v-0.009zM165.36 764.132c-12.017-12.008-31.495-11.999-43.503 0.018-12.008 12.008-12.008 31.485 0 43.503s31.485 12.017 43.503 0.009c11.999-12.027 11.999-31.495 0-43.53zM529.871 797.721c101.965-10.051 176.466-100.861 166.405-202.813-10.051-101.962-100.851-176.463-202.813-166.413-101.955 10.061-176.456 100.859-166.403 202.813 4.511 49.098 28.508 94.337 66.616 125.61 38.111 31.265 87.171 45.965 136.195 40.802zM111.742 634.872c12.017 12.027 31.513 12.027 43.53 0.010 12.026-12.027 12.026-31.514 0-43.53-12.017-12.027-31.513-12.027-43.53 0-5.816 5.742-9.096 13.578-9.096 21.765 0 8.177 3.28 16.013 9.096 21.755z" />
<glyph unicode="&#xe913;" glyph-name="facebook" horiz-adv-x="439" d="M406.611 442.741h-123.422v-454.407h-181.743v454.407h-86.803v161.287h86.803v103.785c0 74.332 33.908 190.74 184.455 190.74h135.63v-155.677h-97.653c-16.276 0-39.333-8.415-39.333-43.478v-93.967h139.698l-17.633-162.69z" />
<glyph unicode="&#xe914;" glyph-name="instagram" d="M863.425 611.858c-0.416 30.87-6.192 61.433-17.083 90.323-9.439 24.368-23.859 46.498-42.339 64.977s-40.611 32.9-64.976 42.342c-28.521 10.705-58.645 16.494-89.1 17.119-39.213 1.753-51.643 2.242-151.177 2.242s-112.292 0-151.216-2.242c-30.441-0.63-60.555-6.418-89.059-17.119-24.372-9.435-46.505-23.854-64.985-42.334s-32.898-40.614-42.334-64.985c-10.726-28.496-16.502-58.617-17.078-89.059-1.753-39.251-2.282-51.682-2.282-151.217s0-112.251 2.282-151.217c0.611-30.485 6.358-60.567 17.078-89.142 9.452-24.359 23.881-46.484 42.367-64.958s40.621-32.882 64.993-42.315c28.427-11.138 58.545-17.342 89.058-18.342 39.251-1.753 51.683-2.283 151.217-2.283s112.291 0 151.215 2.283c30.455 0.596 60.585 6.373 89.1 17.077 24.365 9.451 46.49 23.877 64.964 42.351 18.48 18.48 32.907 40.605 42.357 64.964 10.722 28.533 16.468 58.615 17.077 89.142 1.753 39.213 2.283 51.643 2.283 151.218-0.078 99.534-0.078 112.169-2.361 151.176zM498.505 273.679c-104.099 0-188.43 84.331-188.43 188.43s84.331 188.43 188.43 188.43c49.975 0 97.903-19.852 133.243-55.19 35.334-35.338 55.188-83.265 55.188-133.24s-19.854-97.903-55.188-133.242c-35.34-35.334-83.268-55.188-133.243-55.188zM694.435 613.57c-24.335 0-43.942 19.646-43.942 43.939 0 5.768 1.138 11.478 3.343 16.807 2.211 5.328 5.445 10.17 9.523 14.248s8.921 7.313 14.246 9.52c5.331 2.207 11.041 3.343 16.812 3.343 5.765 0 11.475-1.136 16.806-3.343 5.325-2.207 10.168-5.442 14.246-9.52s7.313-8.92 9.523-14.248c2.205-5.328 3.343-11.039 3.343-16.807 0-24.292-19.649-43.939-43.899-43.939zM498.518 339.709c67.6 0 122.4 54.799 122.4 122.399s-54.8 122.4-122.4 122.4c-67.6 0-122.4-54.801-122.4-122.4s54.8-122.399 122.4-122.399z" />
<glyph unicode="&#xe915;" glyph-name="twitter" horiz-adv-x="1195" d="M1137.801 770.964c-41.199-18.126-85.692-31.308-131.831-36.251 47.787 28.012 84.045 72.503 100.523 126.881-44.493-26.365-93.926-44.491-145.007-56.026-41.199 44.491-100.523 72.504-166.432 72.504-126.881 0-229.046-102.165-229.046-229.046 0-18.127 1.648-34.604 6.591-52.73-189.499 9.887-359.224 100.517-471.276 238.933-19.774-34.604-31.309-72.504-31.309-115.348 0-79.095 41.195-149.951 102.165-191.146-37.9 1.648-72.504 11.535-103.813 28.012 0-1.648 0-1.648 0-3.296 0-110.403 79.095-202.681 182.908-224.103-19.773-4.943-39.548-8.239-60.97-8.239-14.83 0-29.66 1.648-42.842 3.296 29.661-90.63 113.699-156.542 214.217-158.19-79.095-60.966-176.317-97.225-283.425-97.225-18.126 0-36.252 1.647-54.378 3.302 100.517-64.265 220.807-102.17 350.985-102.17 420.192 0 650.889 349.338 650.889 650.889 0 9.887 0 19.774 0 29.661 42.837 32.957 82.389 74.152 112.051 120.29z" />
<glyph unicode="&#xe916;" glyph-name="manage_it" d="M729.7 695.801v0.002c6.963 5.315 16.581 5.827 24.093 1.378l-24.093-1.38zM729.7 695.801c-7.278-5.556-10.206-15.38-7.246-24.013l7.246 24.013zM742.773 657.259c-9.097 0-17.379 5.947-20.319 14.529l20.319-14.529zM742.773 657.259c10.094 0 18.966 7.283 21.026 17.12l-21.026-17.12zM763.799 674.38c1.853 8.831-2.226 18.193-10.006 22.801l10.006-22.801zM478.822 352.512c59.455 0 107.82 48.369 107.82 107.827 0 59.455-48.364 107.825-107.82 107.825s-107.82-48.367-107.82-107.825c0-59.458 48.364-107.827 107.82-107.827zM478.822 525.19c35.755 0 64.846-29.094 64.846-64.851s-29.094-64.853-64.846-64.853c-35.755 0-64.846 29.096-64.846 64.853s29.091 64.851 64.846 64.851zM1002.045 836.003c0 56.276-45.778 102.054-102.049 102.054h-2.438v-0.029c-55.15-1.299-99.613-46.565-99.613-102.025 0-20.376 6.005-39.383 16.335-55.334l-39.531-39.533c-8.392-8.391-8.392-21.996 0-30.387 4.196-4.196 9.699-6.293 15.192-6.293 5.498 0 11.001 2.097 15.194 6.293l39.529 39.534c15.95-10.33 34.955-16.335 55.33-16.335 56.274 0 102.051 45.78 102.051 102.056zM899.996 776.921c-32.573 0-59.077 26.506-59.077 59.082s26.505 59.080 59.077 59.080c32.573 0 59.077-26.506 59.077-59.080 0-32.578-26.505-59.082-59.077-59.082zM710.256 646.227v0c-8.392 8.392-21.999 8.392-30.388-0.002l-52.724-52.729c-40.263 33.475-91.97 53.643-148.304 53.643s-108.042-20.168-148.302-53.641l-96.235 96.239c9.626 15.158 15.212 33.13 15.212 52.378 0 54.028-43.947 97.978-97.971 97.978s-97.974-43.952-97.974-97.978c0-54.026 43.95-97.978 97.974-97.978 19.246 0 37.216 5.586 52.374 15.214l96.236-96.241c-33.473-40.263-53.643-91.975-53.643-148.312 0-54.835 19.561-107.196 53.619-148.339l-91.327-91.331c-19.235 13.314-42.559 21.126-67.673 21.126-65.722 0-119.187-53.465-119.187-119.191s53.463-119.191 119.185-119.191c65.722 0 119.185 53.467 119.185 119.191 0 25.115-7.812 48.443-21.126 67.677l91.282 91.29c10.033-8.355 20.836-15.921 32.341-22.565 35.135-20.29 75.254-31.010 116.029-31.010s80.896 10.72 116.029 31.010c11.505 6.644 22.306 14.209 32.341 22.565l60.955-60.96c-15.138-21.348-24.052-47.411-24.052-75.518 0-72.16 58.7-130.865 130.857-130.865s130.855 58.704 130.855 130.865c0.002 72.163-58.697 130.865-130.853 130.865-28.57 0-55.035-9.206-76.578-24.803l-60.843 60.848c34.058 41.14 53.619 93.501 53.619 148.336 0 56.335-20.168 108.047-53.641 148.309l52.726 52.734c8.389 8.389 8.389 21.996 0 30.386zM562.632 295.831v-50.898c-25.917-12.793-54.643-19.507-83.792-19.507-29.152 0-57.878 6.717-83.797 19.507v50.898c0 4.020 3.274 7.295 7.292 7.295h153.008c4.016 0 7.29-3.274 7.29-7.295zM96.54 742.115c0 30.326 24.674 55.004 55 55.004 30.324 0 54.998-24.677 54.998-55.004s-24.674-55.004-54.998-55.004c-30.324 0-55 24.678-55 55.004zM478.839 604.165c104.409 0 189.357-84.951 189.357-189.367 0-54.001-23.286-105.079-62.586-140.634v21.67c0 27.719-22.548 50.266-50.266 50.266h-153.008c-27.721 0-50.269-22.548-50.269-50.266v-21.67c-39.3 35.555-62.583 86.633-62.583 140.634-0.002 104.416 84.943 189.367 189.355 189.367zM141.128 0.846c-42.022 0-76.213 34.192-76.213 76.217s34.193 76.22 76.213 76.22c42.020 0 76.213-34.192 76.213-76.22 0-42.025-34.193-76.217-76.213-76.217zM794.973 11.664c-48.46 0-87.884 39.429-87.884 87.891 0 48.46 39.426 87.888 87.884 87.888 48.455 0 87.881-39.429 87.881-87.888 0-48.462-39.426-87.891-87.881-87.891z" />
<glyph unicode="&#xe917;" glyph-name="Document" d="M683.46 198.34h-362.416c-20.781 0-37.647 16.866-37.647 37.647s16.866 37.647 37.647 37.647h362.416c20.781 0 37.647-16.866 37.647-37.647s-16.866-37.647-37.647-37.647zM683.46 408.486h-362.416c-20.781 0-37.647 16.866-37.647 37.647s16.866 37.647 37.647 37.647h362.416c20.781 0 37.647-16.866 37.647-37.647s-16.866-37.647-37.647-37.647zM459.318 618.144h-138.289c-20.781 0-37.647 16.866-37.647 37.647s16.866 37.647 37.647 37.647h138.289c20.781 0 37.647-16.866 37.647-37.647s-16.866-37.647-37.647-37.647zM693.143 874.666l-385.957-0.201c-116.856-0.703-186.729-72.985-186.729-193.406v-461.604c0-121.224 70.526-193.605 188.536-193.605l385.957 0.151c116.856 0.702 186.729 73.086 186.729 193.455v461.604c0 121.224-70.475 193.606-188.536 193.606zM309.043-49.444c-157.816 0-263.881 108.071-263.881 268.899v461.604c0 162.284 102.751 267.746 261.773 268.7l386.208 0.201c157.816 0 263.831-108.072 263.831-268.9v-461.604c0-162.232-102.752-267.746-261.774-268.749l-386.157-0.151z" />
<glyph unicode="&#xe918;" glyph-name="Group-14505" horiz-adv-x="2594" d="M1181.45 573.818c-19.253 0-35.005-15.729-35.005-34.95v-263.862c0-19.224 15.751-34.95 35.005-34.95s35.007 15.726 35.007 34.95v262.114c1.75 20.969-14.004 36.698-35.007 36.698zM1181.464 711.862c-24.505 0-45.509-20.969-45.509-45.434s21.003-45.434 45.509-45.434c24.503 0 45.509 20.969 45.509 45.434s-19.253 45.434-45.509 45.434zM1468.518 309.953c-49.009 0-89.265 33.203-98.017 78.636v45.434c10.502 45.434 50.759 78.634 98.017 78.634 56.011 0 101.517-45.434 101.517-101.351 0-55.92-45.507-101.353-101.517-101.353zM1468.518 587.796c-36.757 0-70.012-10.483-98.017-29.705v125.815c0 19.222-15.754 34.948-35.007 34.948-19.251 0-35.005-15.726-35.005-34.948v-410.649c0-19.222 15.754-34.948 35.005-34.948 17.504 0 31.507 12.231 35.007 27.96 28.005-19.224 63.012-31.455 99.767-31.455 98.017 0 176.781 78.634 176.781 176.492 0 97.856-80.514 176.49-178.531 176.49zM2159.873 718.855c-19.253 0-35.007-15.726-35.007-34.948v-410.649c0-19.222 15.754-34.948 35.007-34.948s35.005 15.726 35.005 34.948v410.649c0 19.222-15.751 34.948-35.005 34.948zM1867.585 309.953c-49.009 0-89.265 33.203-98.017 78.636v45.434c10.502 45.434 50.759 78.634 98.017 78.634 56.011 0 101.519-45.434 101.519-101.351 0-55.92-45.509-101.353-101.519-101.353zM1867.585 587.796c-36.757 0-70.012-10.483-98.017-29.705v125.815c0 19.222-15.751 34.948-35.005 34.948s-35.007-15.726-35.007-34.948v-410.649c0-19.222 15.754-34.948 35.007-34.948 17.501 0 31.505 12.231 35.005 27.96 28.005-19.224 63.012-31.455 99.767-31.455 98.017 0 176.781 78.634 176.781 176.492-1.75 97.856-80.514 176.49-178.531 176.49zM280.050 304.711c0 0-78.765 19.224-38.507 78.636 33.255 48.927 229.29 204.45 229.29 204.45s54.261 40.191-12.252 47.181h-423.575c-22.754-57.665-35.006-120.573-35.006-186.976 0-283.086 229.29-512 512.84-512 162.78 0 306.306 75.139 400.821 192.218l-633.61 176.49zM666.879 743.318c0 0 84.016 5.242 92.768-45.434 8.752-45.434-45.509-75.139-45.509-75.139l-239.791-186.976c0 0-31.507-10.486 5.25-40.193 29.755-24.462 355.312-164.259 470.833-213.188 47.259 76.889 75.264 169.504 75.264 265.612 0 283.086-229.292 512-512.842 512-173.279 0-327.307-85.625-420.073-216.682h574.101zM2414.364 519.883c44.396 0 78.234-28.872 86.699-74.24h-171.281c6.349 43.306 40.164 74.24 84.582 74.24zM2572.948 418.834c0 74.24-65.559 156.727-158.583 156.727-99.374 0-156.476-84.551-156.476-167.037 0-96.923 67.661-164.976 164.919-164.976 69.791 0 141.676 39.181 141.676 65.989 0 14.436-12.675 28.872-27.489 28.872-6.349 0-19.024-6.187-29.605-12.374-21.14-10.311-44.396-24.747-76.117-24.747-54.977 0-95.141 28.872-101.49 76.302l-2.116 10.311h215.677c21.14 0 29.605 8.249 29.605 30.934z" />
<glyph unicode="&#xe919;" glyph-name="User" d="M797.372 455.079c-16.976 0-31.783 12.501-34.227 29.798-2.629 18.958 10.517 36.441 29.475 39.070 47.97 6.733 84.181 48.338 84.272 96.864 0 48.11-34.503 88.793-82.058 96.588-18.819 3.090-31.597 20.895-28.506 39.761 3.136 18.866 20.804 31.504 39.762 28.506 81.090-13.33 139.992-82.704 139.992-164.947-0.185-82.795-62.041-153.831-143.914-165.316-1.613-0.23-3.23-0.324-4.796-0.324zM934.577 160.58c-13.929 0-27.075 8.485-32.333 22.279-6.828 17.851 2.167 37.869 20.018 44.649 31.274 11.901 31.274 25.046 31.274 31.365 0 20.203-25.691 34.318-76.338 41.884-18.867 2.859-31.921 20.433-29.107 39.391 2.815 18.911 20.342 31.503 39.391 29.059 111.765-16.744 135.243-69.236 135.243-110.335 0-25.091-9.872-70.894-75.831-96.035-4.060-1.522-8.211-2.258-12.316-2.258zM520.61 281.301c-109.596 0-240.272-13.47-240.272-77.586 0-64.623 130.676-78.184 240.272-78.184s240.225 13.423 240.225 77.401c0 64.761-130.629 78.369-240.225 78.369zM520.61 56.342c-76.523 0-309.461 0-309.461 147.373 0 146.775 232.938 146.775 309.461 146.775s309.414 0 309.414-147.558c0-146.59-224.774-146.59-309.414-146.59zM520.613 761.658c-78.045 0-141.517-63.516-141.517-141.561-0.138-37.823 14.347-73.203 40.869-99.91s61.855-41.514 99.494-41.652l1.154-34.595v34.595c78.045 0 141.561 63.471 141.561 141.562 0 78.045-63.516 141.561-141.561 141.561zM520.613 409.345h-1.245c-56.276 0.185-108.998 22.235-148.48 62.088-39.576 39.806-61.21 92.666-60.981 148.802 0 116.054 94.512 210.612 210.706 210.612 116.238 0 210.75-94.558 210.75-210.75s-94.512-210.751-210.75-210.751zM243.806 455.079c-1.568 0-3.183 0.094-4.797 0.324-81.874 11.485-143.683 82.521-143.868 165.224 0 82.335 58.903 151.709 139.993 165.039 19.419 3.044 36.624-9.733 39.761-28.506 3.090-18.866-9.686-36.67-28.506-39.761-47.556-7.795-82.058-48.478-82.058-96.68 0.092-48.433 36.301-90.085 84.226-96.772 18.958-2.629 32.104-20.112 29.475-39.070-2.445-17.297-17.252-29.798-34.226-29.798zM106.646 160.58c-4.105 0-8.256 0.736-12.316 2.258-66.006 25.185-75.877 70.988-75.877 96.035 0 41.054 23.478 93.591 135.288 110.335 19.050 2.399 36.486-10.149 39.346-29.059 2.814-18.958-10.24-36.532-29.106-39.391-50.646-7.567-76.339-21.681-76.339-41.884 0-6.318 0-19.417 31.319-31.365 17.851-6.781 26.845-26.798 20.019-44.649-5.258-13.794-18.404-22.279-32.335-22.279z" />
<glyph unicode="&#xe91a;" glyph-name="check" d="M811.062 800.584c16.391 15.606 38.205 24.233 60.837 24.062s44.312-9.128 60.463-24.979c16.161-15.852 25.526-37.359 26.121-59.984s-7.615-44.597-22.91-61.28l-464.293-580.655c-7.984-8.6-17.619-15.501-28.331-20.29s-22.279-7.371-34.011-7.588c-11.732-0.218-23.387 1.933-34.269 6.324s-20.766 10.929-29.062 19.227l-307.899 307.898c-8.575 7.989-15.452 17.624-20.222 28.329s-7.335 22.262-7.542 33.98c-0.207 11.718 1.949 23.358 6.338 34.225s10.923 20.739 19.21 29.026c8.287 8.288 18.159 14.821 29.026 19.21s22.507 6.545 34.225 6.339c11.718-0.207 23.275-2.772 33.98-7.542s20.34-11.647 28.33-20.221l243.665-243.549 404.131 514.909c0.727 0.896 1.504 1.75 2.327 2.56h-0.116z" />
<glyph unicode="&#xe91b;" glyph-name="full_management" d="M728.93 696.788v0c7.363 5.62 17.518 6.159 25.451 1.458l-25.451-1.458zM728.93 696.788c-7.697-5.878-10.786-16.252-7.66-25.376l7.66 25.376zM742.741 656.060c-9.618 0-18.364 6.278-21.472 15.353l21.472-15.353zM742.741 656.060c10.676 0 20.041 7.69 22.218 18.088M742.741 656.060l22.218 18.088M764.96 674.148c1.96 9.335-2.345 19.222-10.576 24.098l10.576-24.098zM478.805 351.327c60.123 0 109.032 48.913 109.032 109.039 0 60.128-48.908 109.039-109.032 109.039-60.126 0-109.034-48.911-109.034-109.039 0-60.126 48.908-109.039 109.034-109.039zM478.805 523.995c35.079 0 63.622-28.548 63.622-63.629s-28.545-63.627-63.622-63.627c-35.079 0-63.625 28.545-63.625 63.627 0 35.084 28.545 63.629 63.625 63.629zM1003.22 836.009c0 56.945-46.319 103.267-103.261 103.267h-3.657v-0.064c-55.257-1.933-99.608-47.482-99.608-103.203 0-20.265 5.871-39.194 15.996-55.162l-38.834-38.837c0 0 0 0 0 0-8.867-8.866-8.867-23.243 0-32.11 4.432-4.432 10.25-6.649 16.055-6.649s11.622 2.216 16.055 6.649l38.832 38.837c15.967-10.127 34.894-15.998 55.159-15.998 56.942 0 103.263 46.324 103.263 103.269zM899.959 778.15c-31.9 0-57.854 25.959-57.854 57.859s25.954 57.857 57.854 57.857c31.898 0 57.854-25.959 57.854-57.857 0-31.903-25.956-57.859-57.854-57.859zM711.075 647.119v0c-8.867 8.865-23.245 8.865-32.11-0.002l-51.936-51.944c-40.346 33.224-91.989 53.214-148.217 53.214-56.23 0-107.874-19.99-148.217-53.211l-94.756 94.761c9.425 15.172 14.882 33.065 14.882 52.202 0 54.698-44.491 99.191-99.186 99.191s-99.187-44.495-99.187-99.191c0-54.696 44.493-99.191 99.187-99.191 19.135 0 37.025 5.454 52.197 14.882l94.759-94.764c-33.221-40.346-53.211-91.994-53.211-148.226 0-54.74 19.39-107.025 53.187-148.248l-89.822-89.827c-19.268 13.1-42.518 20.765-67.523 20.765-66.392 0-120.399-54.009-120.399-120.403 0-66.397 54.005-120.403 120.397-120.403s120.399 54.011 120.399 120.405c0 25.005-7.67 48.257-20.767 67.525l89.775 89.78c9.843-8.116 20.414-15.479 31.651-21.97 35.321-20.397 75.649-31.173 116.634-31.173s81.313 10.776 116.631 31.173c11.237 6.49 21.809 13.853 31.651 21.97l59.443-59.446c-14.919-21.387-23.684-47.377-23.684-75.376 0-72.828 59.243-132.074 132.069-132.074s132.067 59.246 132.067 132.074c0.002 72.833-59.238 132.076-132.064 132.076-28.462 0-54.857-9.053-76.442-24.425l-59.326 59.329c33.797 41.221 53.189 93.506 53.189 148.246 0 56.23-19.99 107.878-53.211 148.226l51.941 51.944c8.865 8.865 8.865 23.242-0.002 32.11zM561.381 295.882v-50.135c-25.571-12.493-53.862-19.046-82.569-19.046-28.709 0-57.003 6.554-82.576 19.046v50.135c0 3.345 2.728 6.073 6.076 6.073h152.995c3.345 0 6.073-2.728 6.073-6.073zM97.755 742.139c0 29.651 24.127 53.781 53.777 53.781 29.648 0 53.775-24.13 53.775-53.781s-24.127-53.781-53.775-53.781c-29.649 0-53.777 24.13-53.777 53.781zM478.813 602.978c103.729 0 188.126-84.4 188.126-188.138 0-52.704-22.331-102.615-60.143-137.85v18.893c0 28.392-23.094 51.485-51.483 51.485h-152.998c-28.394 0-51.485-23.094-51.485-51.485v-18.893c-37.812 35.235-60.143 85.146-60.143 137.85-0.002 103.739 84.395 188.138 188.126 188.138zM141.121 2.133c-41.346 0-74.989 33.646-74.989 74.996 0 41.348 33.645 74.993 74.989 74.993s74.989-33.643 74.989-74.993c0-41.35-33.645-74.996-74.989-74.996zM794.926 12.951c-47.784 0-86.66 38.88-86.66 86.665s38.878 86.665 86.66 86.665c47.779 0 86.657-38.88 86.657-86.665s-38.88-86.665-86.657-86.665z" />
<glyph unicode="&#xe91c;" glyph-name="User1" horiz-adv-x="1055" d="M402.969 253.698c-143.721 0-315.060-18.463-315.060-106.639 0-69.924 106.020-105.401 315.060-105.401 209.042 0 315.063 35.84 315.063 106.434 0 70.076-106.021 105.605-315.063 105.605zM402.969-35.918c-107.364 0-392.635 0-392.635 182.976 0 184.214 295.512 184.214 392.635 184.214 168.547 0 392.639-18.978 392.639-183.181 0-184.010-295.514-184.010-392.639-184.010zM402.969 872.081c-103.694 0-188.045-84.351-188.045-187.992s84.351-187.992 188.045-187.992h1.601c49.856 0.208 96.815 19.807 132.034 55.336 35.272 35.427 54.564 82.541 54.356 132.5 0 103.796-84.35 188.147-187.991 188.147zM402.969 418.521c-146.464 0-265.62 119.156-265.62 265.568s119.156 265.568 265.62 265.568c146.41 0 265.567-119.156 265.567-265.568 0.31-70.542-27.049-137.155-76.902-187.318-49.754-50.219-116.208-77.992-186.908-78.249h-1.756zM759.339 477.386c-19.031 0-35.632 14.016-38.372 33.41-2.948 21.203 11.792 40.854 32.995 43.802 64.543 9.052 113.261 65.061 113.363 130.328 0 64.853-46.44 119.57-110.313 130.017-21.15 3.517-35.477 23.428-32.011 44.58 3.463 21.152 23.478 35.375 44.528 32.013 101.624-16.653 175.371-103.589 175.371-206.662-0.205-103.693-77.625-192.75-180.131-207.126-1.809-0.261-3.618-0.363-5.43-0.363zM935.852 98.344c-15.67 0-30.41 9.57-36.253 25.032-7.602 20.015 2.482 42.459 22.497 50.012 43.958 16.651 43.958 36.976 43.958 45.664 0 29.324-34.701 49.391-103.123 59.578-21.203 3.209-35.84 22.962-32.684 44.116 3.205 21.203 23.322 35.427 44.113 32.684 139.947-20.945 169.27-85.746 169.27-136.378 0-37.702-16.291-88.747-94.022-118.173-4.499-1.707-9.154-2.535-13.756-2.535z" />
<glyph unicode="&#xe91d;" glyph-name="Calendar" horiz-adv-x="913" d="M870.248 530.828h-822.153c-19.096 0-34.595 15.498-34.595 34.595s15.498 34.595 34.595 34.595h822.153c19.096 0 34.595-15.498 34.595-34.595s-15.498-34.595-34.595-34.595zM664.28 350.692c-19.096 0-34.78 15.498-34.78 34.595s15.269 34.595 34.365 34.595h0.415c19.096 0 34.595-15.498 34.595-34.595s-15.498-34.595-34.595-34.595zM459.591 350.692c-19.096 0-34.78 15.498-34.78 34.595s15.269 34.595 34.365 34.595h0.415c19.096 0 34.595-15.498 34.595-34.595s-15.498-34.595-34.595-34.595zM254.474 350.692c-19.096 0-34.825 15.498-34.825 34.595s15.314 34.595 34.41 34.595h0.415c19.096 0 34.596-15.498 34.596-34.595s-15.499-34.595-34.596-34.595zM664.28 171.415c-19.096 0-34.78 15.498-34.78 34.595s15.269 34.595 34.365 34.595h0.415c19.096 0 34.595-15.498 34.595-34.595s-15.498-34.595-34.595-34.595zM459.591 171.415c-19.096 0-34.78 15.498-34.78 34.595s15.269 34.595 34.365 34.595h0.415c19.096 0 34.595-15.498 34.595-34.595s-15.498-34.595-34.595-34.595zM254.474 171.415c-19.096 0-34.825 15.498-34.825 34.595s15.314 34.595 34.41 34.595h0.415c19.096 0 34.596-15.498 34.596-34.595s-15.499-34.595-34.596-34.595zM645.474 720.559c-19.096 0-34.595 15.498-34.595 34.595v151.801c0 19.096 15.498 34.594 34.595 34.594s34.595-15.498 34.595-34.594v-151.801c0-19.096-15.498-34.595-34.595-34.595zM272.851 720.559c-19.096 0-34.595 15.498-34.595 34.595v151.801c0 19.096 15.498 34.594 34.595 34.594s34.595-15.498 34.595-34.594v-151.801c0-19.096-15.498-34.595-34.595-34.595zM263.892 799.523c-119.605 0-185.473-63.792-185.473-179.615v-417.396c0-118.358 65.868-183.49 185.473-183.49h390.134c119.606 0 185.474 63.931 185.474 179.986v420.9c0.185 56.965-15.13 101.247-45.526 131.69-31.274 31.366-79.476 47.925-139.532 47.925h-390.549zM654.026-50.168h-390.134c-157.059 0-254.662 96.821-254.662 252.679v417.396c0 153.508 97.603 248.804 254.662 248.804h390.549c78.831 0 144.008-23.616 188.518-68.221 43.221-43.405 65.959-105.813 65.73-180.675v-420.809c0-153.694-97.604-249.175-254.663-249.175z" />
<glyph unicode="&#xe91e;" glyph-name="Chat" d="M254.078 80.129c26.752 0 51.984-10.146 78.691-20.895 163.61-75.646 357.108-41.237 483.17 84.782 166.331 166.422 166.331 437.137 0 603.467-80.536 80.536-187.641 124.863-301.665 124.863-114.068 0-221.22-44.373-301.71-124.909-126.109-126.016-160.427-319.516-85.472-481.557 10.794-26.707 21.218-52.722 21.218-79.753 0-26.984-9.271-54.15-17.436-78.137-6.734-19.741-16.928-49.539-10.378-56.090 6.412-6.642 36.394 3.83 56.182 10.611 23.755 8.117 50.693 17.436 77.4 17.618zM513.124-49.899c-70.482 0-141.423 14.898-207.8 45.618-19.556 7.843-37.869 15.222-51.015 15.222-15.129-0.091-35.471-7.102-55.121-13.882-40.314-13.838-90.499-31.091-127.631 5.903-36.993 37.038-19.926 87.087-6.181 127.355 6.781 19.832 13.746 40.312 13.746 55.811 0 12.731-6.135 28.968-15.545 52.354-86.394 186.581-46.449 411.446 100.094 557.895 93.544 93.59 218.037 145.159 350.559 145.159 132.519 0 257.060-51.523 350.604-145.113 193.362-193.362 193.362-507.94 0-701.302-94.789-94.836-222.421-145.021-351.711-145.021zM696.323 380.518c-25.462 0-46.31 20.618-46.31 46.124 0 25.509 20.433 46.127 45.895 46.127h0.415c25.462 0 46.127-20.618 46.127-46.127 0-25.506-20.665-46.124-46.127-46.124zM511.419 380.518c-25.462 0-46.31 20.618-46.31 46.124 0 25.509 20.386 46.127 45.895 46.127h0.415c25.462 0 46.127-20.618 46.127-46.127 0-25.506-20.665-46.124-46.127-46.124zM326.487 380.518c-25.462 0-46.312 20.618-46.312 46.124 0 25.509 20.436 46.127 45.897 46.127h0.415c25.462 0 46.124-20.618 46.124-46.127 0-25.506-20.663-46.124-46.124-46.124z" />
<glyph unicode="&#xe920;" glyph-name="property_in_3d" d="M990.369 110.212h0.002c12.117-5.683 17.325-20.395 12.095-32.797l-12.098 32.797zM990.369 110.212l-100.167 46.887v437.372c0 9.745-5.534 18.917-14.568 22.967-0.005 0.002-0.010 0.005-0.015 0.007l-339.697 153.925v144.18c0 13.536-10.481 24.944-23.923 24.944-13.451 0-23.923-11.409-23.923-24.944v-144.18l-339.661-153.91c-0.011-0.005-0.021-0.010-0.032-0.012-8.62-3.789-14.586-12.834-14.586-22.977v-437.372l-100.17-46.887M990.369 110.212h-956.74M33.629 110.212c-12.117-5.683-17.326-20.395-12.096-32.797 5.241-12.437 19.343-18.498 31.701-12.712v0l104.64 48.981 344.59-156.14c5.825-2.64 12.893-2.799 19.076 0h0.002M33.629 110.212l487.914-152.669M521.543-42.457l344.583 156.14 104.641-48.981M521.543-42.457l449.224 107.159M970.767 64.702c12.407-5.808 26.48 0.329 31.7 12.712l-31.7-12.712zM281.427 198.661l-0.002 0.002c-5.286 12.517-19.436 18.444-31.698 12.71h-0.002l-68.086-31.876v376.939l306.439-138.859v-399.124l-271.155 122.87 52.409 24.532c12.117 5.681 17.325 20.402 12.095 32.805zM535.923 417.577l306.432 138.859v-376.939l-68.081 31.868c-12.276 5.742-26.419-0.183-31.7-12.715-5.23-12.403-0.020-27.114 12.095-32.795l0.002-0.002 52.407-24.53-271.155-122.87v399.124zM512 461.132l-294.257 133.339 270.334 122.498v-42.229c0-13.527 10.472-24.944 23.923-24.944 13.444 0 23.923 11.418 23.923 24.944v42.229l270.334-122.498-294.256-133.339z" />
<glyph unicode="&#xe921;" glyph-name="Show" d="M511.982 566.398c-66.762 0-121.022-54.314-121.022-121.073 0-66.711 54.26-120.974 121.022-120.974s121.073 54.263 121.073 120.974c0 66.759-54.311 121.073-121.073 121.073zM511.982 249.058c-108.273 0-196.316 88.043-196.316 196.268 0 108.273 88.043 196.366 196.316 196.366s196.367-88.093 196.367-196.366c0-108.225-88.094-196.268-196.367-196.268zM88.843 445.365c93.365-206.255 250.628-328.885 423.154-328.936 172.523 0.051 329.788 122.681 423.153 328.936-93.365 206.206-250.63 328.834-423.153 328.885-172.475-0.050-329.789-122.679-423.154-328.885zM512.096 41.135h-0.25c-207.613 0.151-394.040 145.67-498.749 389.373-4.066 9.487-4.066 20.227 0 29.714 104.709 243.653 291.187 389.171 498.749 389.322 0.099 0.050 0.099 0.050 0.151 0 0.099 0.050 0.099 0.050 0.151 0 207.61-0.151 394.038-145.669 498.748-389.322 4.114-9.487 4.114-20.227 0-29.714-104.659-243.703-291.138-389.222-498.748-389.373h-0.051z" />
<glyph unicode="&#xe922;" glyph-name="Time-Circle" d="M511.997 874.667c-235.269 0-426.666-191.398-426.666-426.667s191.398-426.668 426.666-426.668c235.27 0 426.668 191.398 426.668 426.668s-191.398 426.667-426.668 426.667zM511.997-53.962c-276.781 0-501.96 225.181-501.96 501.962s225.18 501.961 501.96 501.961c276.781 0 501.962-225.18 501.962-501.961s-225.181-501.962-501.962-501.962zM684.231 262.656c-6.575 0-13.201 1.708-19.275 5.271l-189.238 112.89c-11.345 6.828-18.372 19.125-18.372 32.376v243.351c0 20.782 16.866 37.648 37.647 37.648 20.832 0 37.647-16.866 37.647-37.648v-221.967l170.918-101.897c17.821-10.692 23.694-33.783 13.050-51.652-7.078-11.797-19.576-18.372-32.376-18.372z" />
<glyph unicode="&#xe923;" glyph-name="Search" d="M499.618 850.965c-215.372 0-390.59-175.17-390.59-390.542 0-215.374 175.218-390.592 390.59-390.592 215.322 0 390.54 175.218 390.54 390.592 0 215.372-175.218 390.542-390.54 390.542zM499.618-1.28c-254.578 0-461.701 207.127-461.701 461.703 0 254.578 207.123 461.654 461.701 461.654 254.576 0 461.651-207.076 461.651-461.654 0-254.576-207.076-461.703-461.651-461.703zM963.049-60.285c-9.057 0-18.159 3.459-25.128 10.382l-167.066 166.588c-13.887 13.892-13.938 36.409-0.046 50.301 13.841 13.983 36.363 13.892 50.301 0.097l167.060-166.639c13.892-13.892 13.938-36.363 0.051-50.25-6.923-7.020-16.071-10.479-25.173-10.479z" />
<glyph unicode="&#xe92a;" d="M128 960h768c70.692 0 128-57.308 128-128v-768c0-70.692-57.308-128-128-128h-768c-70.692 0-128 57.308-128 128v768c0 70.692 57.308 128 128 128z" />
<glyph unicode="&#xe92b;" d="M260.941 428.531c-2.47 4.792-4.941 9.585-4.941 14.378s2.47 9.585 4.941 14.378l27.175 26.358c7.411 7.189 19.764 7.189 27.175 0l2.47-2.396 111.17-115.020c4.941-4.792 9.882-4.792 14.823 0l261.865 268.381h2.47c7.411 7.188 19.763 7.188 27.174 0l27.174-26.359c7.418-7.188 7.418-19.17 0-26.359l-313.743-321.097c-4.941-2.4-9.882-4.794-14.823-4.794s-9.882 2.394-14.822 4.794l-153.168 162.944-4.941 4.793z" />
<glyph unicode="&#xe92e;" glyph-name="zibble" d="M665.784 743.317c0 0 83.877 5.241 92.614-45.434 8.737-45.434-45.433-75.141-45.433-75.141l-239.397-186.976c0 0-31.454-10.486 5.243-40.191 29.705-24.464 354.726-164.261 470.055-213.189 47.18 76.887 75.14 169.502 75.14 265.611 0 283.087-228.913 512.003-511.995 512.003-172.995 0-326.766-85.625-419.38-216.683h573.154zM279.587 304.709c0 0-78.634 19.221-38.443 78.635 33.201 48.928 228.911 204.452 228.911 204.452s54.171 40.191-12.231 47.181h-422.876c-22.716-57.667-34.948-120.575-34.948-186.978 0-283.087 228.913-512.003 511.994-512.003 162.51 0 305.799 75.141 400.16 192.221l-632.567 176.492z" />
<glyph unicode="&#xe92f;" glyph-name="click" d="M153.846 786.77v0c-17.001 7.439-36.812-0.315-44.251-17.316l44.252 17.316zM153.846 786.77l64.001-28 2.565 5.863zM153.846 786.77l66.566-22.137zM220.412 764.633l-2.565-5.863c17-7.437 24.753-27.25 17.316-44.252zM220.412 764.633l14.751-50.115zM124.345 719.338l2.565 5.863 64.002-28.001c4.392-1.923 8.957-2.826 13.445-2.826l-80.012 24.964zM124.345 719.338l2.565 5.863zM124.345 719.338l2.565 5.863zM235.163 714.518c-5.516-12.607-17.845-20.141-30.805-20.144l30.805 20.144zM126.91 725.202c-17 7.437-24.753 27.249-17.316 44.251l17.316-44.251zM590.787 6.41l0.005 0.003-0.108 0.2-66.012 123.599-39.831-76.032c-0.732-1.4-1.569-2.752-2.499-4.045-20.905-29.010-55.588-39.575-81.559-39.575l-0.62 0.003c-28.795 0.189-57.638 12.567-79.004 34.097v0c-22.175 22.344-34.376 51.978-34.376 83.505v517.911c0 44.749 25.172 84.188 65.754 103.035v0c40.202 18.67 86.080 12.744 120.166-15.427l-0.005-0.006 0.261-0.194 263.496-196.224c14.884-11.082 17.964-32.133 6.881-47.017-11.085-14.884-32.133-17.961-47.017-6.879l-264.379 196.882c-0.558 0.417-1.096 0.842-1.61 1.277l-0.005 0.005c-21.046 17.772-43.374 9.467-49.48 6.633h-0.003c-6.106-2.834-26.857-14.536-26.857-42.086v-517.914c0-29.271 24.038-50.253 46.623-50.401h0.225c9.085 0 19.453 3.645 25.188 9.528l0.655 0.668 0.433 0.829 67.517 128.878c5.773 11.023 17.172 17.953 29.617 18.007h0.146c12.398 0 23.795-6.828 29.64-17.772l96.305-180.316c0.225-0.42 0.44-0.845 0.648-1.277l0.005-0.013c11.113-23.158 39.076-33.219 62.392-22.426 11.584 5.358 20.349 14.956 24.643 26.972 4.16 11.648 3.628 24.207-1.485 35.425l-0.113 0.248-0.133 0.236-97.193 172.954c-5.847 10.404-5.734 23.127 0.292 33.428v0c6.026 10.299 17.065 16.63 29.002 16.63l137.464 0.008c27.095 1.385 37.821 22.825 40.369 29.046 2.616 6.38 10.207 29.865-9.057 50.296-12.731 13.504-12.104 34.767 1.395 47.498 13.501 12.731 34.767 12.104 47.498-1.398 31.084-32.968 39.662-79.606 22.351-121.869-17.208-42.020-55.793-69.079-100.767-70.758h-0.020c-0.392-0.018-0.801-0.023-1.234-0.023h-80.576l69.747-124.114c0-0.003 0.003-0.005 0.003-0.008 0.34-0.607 0.655-1.206 0.945-1.802v0c13.512-27.868 15.214-59.238 4.795-88.402v0c-10.417-29.169-31.603-52.36-59.715-65.362-15.38-7.107-31.593-10.47-47.593-10.473-42.527 0-83.494 23.736-103.212 64.010zM322.534 808.527v-0.001c-5.133-2.817-10.665-4.146-16.118-4.146-11.894 0-23.388 6.313-29.496 17.452l-34.001 62c-8.923 16.271-2.967 36.695 13.306 45.618s36.692 2.967 45.617-13.304v0l33.999-62.001c8.922-16.271 2.967-36.695-13.307-45.617zM484.26 843.362v0c-4.69-14.069-17.797-22.986-31.872-22.986-3.515 0-7.094 0.556-10.629 1.735l-0.003 0.001c-17.603 5.866-27.118 24.895-21.248 42.501l21.998 66.001c5.868 17.605 24.906 27.121 42.501 21.251l0.003-0.001c17.603-5.866 27.118-24.896 21.248-42.501l-21.998-66.001zM216.859 544.786v0l-60-24c-4.105-1.641-8.323-2.414-12.468-2.414-13.346 0-25.957 8.005-31.208 21.133-6.891 17.229 1.489 36.785 18.719 43.676v0l60.002 24c17.223 6.894 36.781-1.485 43.674-18.719 6.892-17.229-1.489-36.785-18.719-43.676zM646.382 784.986l-54.001-40c-6.019-4.458-13.020-6.603-19.968-6.603-10.301 0-20.442 4.708-27.031 13.603-11.046 14.912-7.913 35.955 6.999 47.001l54.001 40.001c14.909 11.044 35.955 7.911 47.002-7.001 11.044-14.912 7.91-35.954-7.002-47z" />
<glyph unicode="&#xe930;" glyph-name="password_white" d="M294.347 874.667c-126.946 0-209.016-86.99-209.016-221.666v-410.001c0-134.677 82.071-221.666 209.016-221.666h435.099c127.096 0 209.218 86.989 209.218 221.666v410.001c0 134.676-82.122 221.666-209.116 221.666h-435.202zM729.446-53.959h-435.099c-170.064 0-284.311 119.365-284.311 296.96v410.001c0 177.593 114.246 296.96 284.311 296.96h435.202c170.114 0 284.41-119.366 284.41-296.96v-410.001c0-177.595-114.296-296.96-284.512-296.96zM353.322 503.296c-30.621 0-55.418-24.796-55.418-55.317 0-30.518 24.797-55.314 55.315-55.314 30.47 0 55.317 24.796 55.317 55.314 0 30.47-24.796 55.266-55.215 55.317zM353.22 317.371c-72.031 0-130.609 58.627-130.609 130.608 0 72.032 58.579 130.611 130.609 130.611 72.132-0.051 130.611-58.63 130.611-130.611s-58.579-130.608-130.611-130.608zM763.461 317.365c-20.781 0-37.647 16.866-37.647 37.647v55.368h-279.492c-20.781 0-37.647 16.815-37.647 37.647 0 20.781 16.866 37.647 37.647 37.647h317.139c20.781 0 37.647-16.866 37.647-37.647v-93.015c0-20.781-16.866-37.647-37.647-37.647zM621.499 317.365c-20.781 0-37.647 16.866-37.647 37.647v93.015c0 20.781 16.866 37.647 37.647 37.647s37.647-16.866 37.647-37.647v-93.015c0-20.781-16.866-37.647-37.647-37.647z" />
<glyph unicode="&#xe931;" glyph-name="shield_white" horiz-adv-x="848" d="M433.181 877.105c-41.349 0-302.226-91.867-332.312-116.98-8.875-8.923-9.216-24.43-7.314-128.244 0.878-50.030 2.097-118.003 2.097-212.114 0-253.61 279.015-366.2 337.48-386.926 58.418 20.822 337.581 134.047 337.581 386.926 0 94.208 1.217 162.231 2.145 212.261 1.855 103.717 1.513 119.223-7.899 128.586-29.5 24.625-290.424 116.492-331.776 116.492zM433.181-42.35c-3.561 0-7.118 0.489-10.582 1.562-16.334 4.924-400.090 124.975-400.090 460.554 0 93.477-1.219 161.11-2.097 210.751-2.243 124-2.731 149.844 29.306 181.832 38.278 38.376 328.167 137.899 383.463 137.899 55.246 0 345.138-99.523 383.511-137.899 31.99-31.988 31.501-57.831 29.257-181.685-0.878-49.641-2.095-117.274-2.095-210.897 0-335.579-383.757-455.63-400.091-460.554-3.464-1.074-7.022-1.562-10.582-1.562zM398.737 339.772c-9.705 0-19.017 3.853-25.893 10.729l-92.257 92.356c-14.239 14.286-14.239 37.496 0.049 51.735 14.238 14.286 37.448 14.286 51.737 0l66.364-66.463 164.229 164.232c14.289 14.286 37.402 14.286 51.689 0 14.286-14.289 14.286-37.449 0-51.738l-190.075-190.122c-6.826-6.875-16.138-10.729-25.843-10.729z" />
<glyph unicode="&#xe932;" glyph-name="Star" horiz-adv-x="1090" d="M547.787 877.419c-5.011 0-17.342-1.376-23.896-14.479l-100.527-201.001c-15.912-31.766-46.575-53.842-82.029-58.909l-225.061-32.424c-14.865-2.147-19.929-13.16-21.471-17.785-1.376-4.459-3.578-15.799 6.662-25.6l162.739-156.352c25.93-24.939 37.712-60.888 31.546-96.068l-38.317-220.768c-2.367-13.817 6.276-21.854 10.13-24.609 4.074-3.082 14.975-9.193 28.463-2.147l201.223 104.329c31.711 16.351 69.477 16.351 101.079 0l201.166-104.273c13.543-6.993 24.444-0.882 28.573 2.091 3.852 2.755 12.496 10.792 10.128 24.609l-38.426 220.768c-6.167 35.179 5.615 71.128 31.546 96.068l162.74 156.352c10.293 9.801 8.093 21.197 6.659 25.6-1.486 4.625-6.55 15.637-21.415 17.785l-225.059 32.424c-35.401 5.067-66.065 27.143-81.976 58.964l-100.639 200.946c-6.494 13.103-18.828 14.479-23.836 14.479zM283.363-58.494c-22.737 0-45.309 7.155-64.633 21.25-33.363 24.444-49.714 64.799-42.612 105.429l38.317 220.764c1.431 8.202-1.376 16.516-7.432 22.353l-162.739 156.352c-29.949 28.682-40.685 71.076-28.022 110.437 12.772 39.804 46.575 68.268 88.251 74.214l225.060 32.427c8.698 1.211 16.186 6.551 19.929 14.149l100.583 201.056c18.554 37.051 55.99 60.064 97.723 60.064 41.73 0 79.165-23.012 97.719-60.064l100.639-201.001c3.799-7.653 11.231-12.993 19.872-14.204l225.062-32.427c41.673-5.946 75.479-34.41 88.249-74.214 12.665-39.361 1.873-81.755-28.077-110.437l-162.737-156.352c-6.058-5.837-8.81-14.151-7.379-22.297l38.374-220.821c7.046-40.686-9.305-81.041-42.721-105.429-33.858-24.83-77.956-28.186-115.339-8.697l-201.11 104.217c-7.875 4.073-17.289 4.073-25.161 0l-201.11-104.273c-16.077-8.367-33.419-12.496-50.706-12.496z" />
<glyph unicode="&#xe933;" glyph-name="Proprietary" d="M172.278 228.288l0.001-0.003 187.885-158.62c66.875-56.461 151.805-87.7 239.299-88.059l345.989 42.458c20.142 2.47 34.742 20.255 33.242 40.492-1.469 19.84-18.035 35.164-37.852 35.164l-1.032-0.020c-3.745-0.072-17.431-0.338-36.618-0.712l-201.096-3.93c-26.752-25.723-67.712-31.741-101.665-12.541v0l-153.119 86.595c-12.093 6.84-16.353 22.19-9.513 34.286v0c6.838 12.091 22.185 16.356 34.284 9.513l153.119-86.595c16.975-9.597 38.070-4.032 48.1 12.682 8.548 14.254 5.962 32.906-6.141 44.293v0l-172.472 162.24-322.408-117.243zM172.278 228.288c-4.539 3.83-10.288 5.934-16.23 5.934M172.278 228.288l-16.23 5.934M156.048 234.222h-110.85M156.048 234.222h-110.85M45.198 234.222v192.435h250.044c74.954 0 145.772-28.805 199.439-81.124l-449.484-111.311zM1028.874 68.275v0c-3.42 46.147-41.93 81.764-88.059 81.764-0.525 0-1.060-0.003-1.6-0.013 0 0 0 0-0.003 0l-211.366-4.134c3.51 26.806-5.655 54.715-26.212 74.051l-171.988 161.779c-63.094 61.417-146.345 95.255-234.404 95.255h-275.202c-13.896 0-25.16-11.264-25.16-25.16v-242.752c0-13.893 11.264-25.16 25.16-25.16h126.808l180.853-152.686c76.332-64.445 173.379-99.932 273.272-99.932 0.146 0.003 0.346 0.010 0.402 0.015l0.105 0.008 0.12 0.013 0.246 0.028 0.806 0.095 3 0.358 11.213 1.359c9.626 1.17 23.334 2.842 39.759 4.849 32.85 4.012 76.572 9.359 120.269 14.71l174.684 21.399c0.003 0 0.003 0-0.62 5.082l0.622-5.082h0.003c46.82 5.747 80.776 47.107 77.292 94.154zM1017.905 734.124l4.303-2.774c-7.964-12.355-25.262-15.262-36.805-6.091l-19.256 15.297 0.069-291.616c0.005-13.745-11.423-25.165-25.16-25.165h-369.961c-13.896 0-25.16 11.267-25.16 25.16v80.020c0 13.896 11.267 25.16 25.16 25.16 13.896 0 25.16-11.267 25.16-25.16v-54.861h63.66v49.695c0 53.025 43.133 96.161 96.161 96.161 53.025 0 96.159-43.133 96.159-96.161v-49.695h63.654l-0.074 306.44-159.741 126.891-159.821-126.955v-73.172c0-13.896-11.267-25.16-25.16-25.16-13.896 0-25.16 11.267-25.16 25.16v33.202l-19.187-15.241c0 0 0 0 0 0-10.877-8.643-26.706-6.83-35.348 4.053-8.643 10.878-6.828 26.705 4.052 35.347l244.972 194.598c0 0 0.003 0 0.003 0M1017.905 734.124l-249.37 221.124c-7.296 5.796-17.631 5.796-24.927 0l-3.185 4.009M1017.905 734.124l4.303-2.774c6.938 10.761 4.5 25.359-5.509 33.309l-244.979 194.598M1017.905 734.124l-246.185 225.133M740.424 959.257c9.16 7.277 22.136 7.277 31.296 0M740.424 959.257h31.296M710.226 518.669h0.003v5.12c0 25.272 20.57 45.842 45.842 45.842s45.842-20.57 45.842-45.842v-49.692h-91.686v44.572z" />
</font>
</defs>
</svg>
